<?xml version="1.0" encoding="UTF-8" standalone="no"?><svg xmlns="http://www.w3.org/2000/svg" xmlns:xlink="http://www.w3.org/1999/xlink" contentScriptType="application/ecmascript" contentStyleType="text/css" height="828px" preserveAspectRatio="none" style="width:928px;height:828px;" version="1.1" viewBox="0 0 928 828" width="928px" zoomAndPan="magnify"><defs><filter height="300%" id="f606w4otnpcym" width="300%" x="-1" y="-1"><feGaussianBlur result="blurOut" stdDeviation="2.0"/><feColorMatrix in="blurOut" result="blurOut2" type="matrix" values="0 0 0 0 0 0 0 0 0 0 0 0 0 0 0 0 0 0 .4 0"/><feOffset dx="4.0" dy="4.0" in="blurOut2" result="blurOut3"/><feBlend in="SourceGraphic" in2="blurOut3" mode="normal"/></filter></defs><g><text fill="#000000" font-family="sans-serif" font-size="18" lengthAdjust="spacingAndGlyphs" textLength="180" x="373" y="30.6279">新建检验报告工作流程</text><ellipse cx="551.25" cy="44.583" fill="#000000" filter="url(#f606w4otnpcym)" rx="10" ry="10" style="stroke: none; stroke-width: 1.0;"/><rect fill="#FEFECE" filter="url(#f606w4otnpcym)" height="36.3887" rx="12.5" ry="12.5" style="stroke: #A80036; stroke-width: 1.5;" width="116" x="493.25" y="74.583"/><text fill="#000000" font-family="sans-serif" font-size="12" font-weight="bold" lengthAdjust="spacingAndGlyphs" textLength="96" x="503.25" y="98.335">企业用户登录平台</text><rect fill="#FEFECE" filter="url(#f606w4otnpcym)" height="167.498" rx="12.5" ry="12.5" style="stroke: #A80036; stroke-width: 1.5;" width="140" x="481.25" y="130.9717"/><text fill="#000000" font-family="sans-serif" font-size="12" font-weight="bold" lengthAdjust="spacingAndGlyphs" textLength="75" x="491.25" y="154.7236">输入或者选择:</text><text fill="#000000" font-family="sans-serif" font-size="12" lengthAdjust="spacingAndGlyphs" textLength="48" x="491.25" y="171.1123">报告编号</text><text fill="#000000" font-family="sans-serif" font-size="12" lengthAdjust="spacingAndGlyphs" textLength="120" x="491.25" y="187.501">产品类型编号（选择）</text><text fill="#000000" font-family="sans-serif" font-size="12" lengthAdjust="spacingAndGlyphs" textLength="48" x="491.25" y="203.8896">生产日期</text><text fill="#000000" font-family="sans-serif" font-size="12" lengthAdjust="spacingAndGlyphs" textLength="24" x="491.25" y="220.2783">批号</text><text fill="#000000" font-family="sans-serif" font-size="12" lengthAdjust="spacingAndGlyphs" textLength="24" x="491.25" y="236.667">商标</text><text fill="#000000" font-family="sans-serif" font-size="12" lengthAdjust="spacingAndGlyphs" textLength="36" x="491.25" y="253.0557">送样人</text><text fill="#000000" font-family="sans-serif" font-size="12" lengthAdjust="spacingAndGlyphs" textLength="48" x="491.25" y="269.4443">样品数量</text><text fill="#000000" font-family="sans-serif" font-size="12" lengthAdjust="spacingAndGlyphs" textLength="48" x="491.25" y="285.833">检验依据</text><rect fill="#FEFECE" filter="url(#f606w4otnpcym)" height="36.3887" rx="12.5" ry="12.5" style="stroke: #A80036; stroke-width: 1.5;" width="140" x="481.25" y="318.4697"/><text fill="#000000" font-family="sans-serif" font-size="12" font-weight="bold" lengthAdjust="spacingAndGlyphs" textLength="120" x="491.25" y="342.2217">点击“创建新检验报告”</text><polygon fill="#FEFECE" filter="url(#f606w4otnpcym)" points="402.75,374.8584,699.75,374.8584,711.75,386.8584,699.75,398.8584,402.75,398.8584,390.75,386.8584,402.75,374.8584" style="stroke: #A80036; stroke-width: 1.5;"/><text fill="#000000" font-family="sans-serif" font-size="11" lengthAdjust="spacingAndGlyphs" textLength="297" x="402.75" y="391.9529">选择的“产品类型编号”是否存在于“产品类型_检验项目表”中？</text><text fill="#000000" font-family="sans-serif" font-size="11" lengthAdjust="spacingAndGlyphs" textLength="22" x="368.75" y="384.4414">存在</text><text fill="#000000" font-family="sans-serif" font-size="11" lengthAdjust="spacingAndGlyphs" textLength="33" x="711.75" y="384.4414">不存在</text><rect fill="#FEFECE" filter="url(#f606w4otnpcym)" height="69.166" rx="12.5" ry="12.5" style="stroke: #A80036; stroke-width: 1.5;" width="282" x="178.5" y="408.8584"/><text fill="#000000" font-family="sans-serif" font-size="12" font-weight="bold" lengthAdjust="spacingAndGlyphs" textLength="183" x="188.5" y="432.6104">新建一行检验报告表记录（父表）:</text><text fill="#000000" font-family="sans-serif" font-size="12" lengthAdjust="spacingAndGlyphs" textLength="147" x="188.5" y="448.999">系统自动生成一条用户记录,</text><text fill="#000000" font-family="sans-serif" font-size="12" lengthAdjust="spacingAndGlyphs" textLength="262" x="188.5" y="465.3877">申请日期=当天日期,但是审批日期为空，不能登录</text><rect fill="#FEFECE" filter="url(#f606w4otnpcym)" height="69.166" rx="12.5" ry="12.5" style="stroke: #A80036; stroke-width: 1.5;" width="332" x="153.5" y="498.0244"/><text fill="#000000" font-family="sans-serif" font-size="12" lengthAdjust="spacingAndGlyphs" textLength="312" x="163.5" y="521.7764">系统创建一份新的检验报告，系统自动设置该检验报告的：</text><text fill="#000000" font-family="sans-serif" font-size="12" lengthAdjust="spacingAndGlyphs" textLength="267" x="163.5" y="538.165">企业检验日期=空, 检测机构检验日期=空，进度=空</text><text fill="#000000" font-family="sans-serif" font-size="12" lengthAdjust="spacingAndGlyphs" textLength="127" x="163.5" y="554.5537">企业ID=该用户的企业ID</text><rect fill="#FEFECE" filter="url(#f606w4otnpcym)" height="101.9434" rx="12.5" ry="12.5" style="stroke: #A80036; stroke-width: 1.5;" width="619" x="10" y="587.1904"/><text fill="#000000" font-family="sans-serif" font-size="12" font-weight="bold" lengthAdjust="spacingAndGlyphs" textLength="207" x="20" y="610.9424">新建多行检验报告单项表记录（子表）:</text><text fill="#000000" font-family="sans-serif" font-size="12" lengthAdjust="spacingAndGlyphs" textLength="387" x="20" y="627.3311">系统自动根据“产品类型_检验项目表”中的产品类型编号的所有检验项目，</text><text fill="#000000" font-family="sans-serif" font-size="12" lengthAdjust="spacingAndGlyphs" textLength="599" x="20" y="643.7197">新增相同数目的“检验报告单项表”记录。把基础表“产品类型_检验项目表”中的检验项目ID按序复制到新增记录中。</text><text fill="#000000" font-family="sans-serif" font-size="12" lengthAdjust="spacingAndGlyphs" textLength="432" x="20" y="660.1084">这样，新增的“检验报告单项表”记录只有“报告编号”和“检验项目ID”两个字段有值。</text><text fill="#000000" font-family="sans-serif" font-size="12" lengthAdjust="spacingAndGlyphs" textLength="581" x="20" y="676.4971">其余字段如“企业检验录入,企业单项评定,检测机构检验录入,检测机构单项评定”就等待企业或者检测机构录入。</text><rect fill="#FEFECE" filter="url(#f606w4otnpcym)" height="36.3887" rx="12.5" ry="12.5" style="stroke: #A80036; stroke-width: 1.5;" width="92" x="273.5" y="709.1338"/><text fill="#000000" font-family="sans-serif" font-size="12" lengthAdjust="spacingAndGlyphs" textLength="72" x="283.5" y="732.8857">提示创建成功</text><rect fill="#FEFECE" filter="url(#f606w4otnpcym)" height="52.7773" rx="12.5" ry="12.5" style="stroke: #A80036; stroke-width: 1.5;" width="268" x="649" y="408.8584"/><text fill="#000000" font-family="sans-serif" font-size="12" font-weight="bold" lengthAdjust="spacingAndGlyphs" textLength="99" x="659" y="432.6104">终止新建检验报告:</text><text fill="#000000" font-family="sans-serif" font-size="12" lengthAdjust="spacingAndGlyphs" textLength="248" x="659" y="448.999">提示必须预先配置该“产品类型编号”的检验项目</text><polygon fill="#FEFECE" filter="url(#f606w4otnpcym)" points="551.25,751.5225,563.25,763.5225,551.25,775.5225,539.25,763.5225,551.25,751.5225" style="stroke: #A80036; stroke-width: 1.5;"/><ellipse cx="551.25" cy="806.5225" fill="#FFFFFF" filter="url(#f606w4otnpcym)" rx="11" ry="11" style="stroke: #000000; stroke-width: 1.0;"/><ellipse cx="551.25" cy="806.5225" fill="#000000" rx="6" ry="6" style="stroke: #7F7F7F; stroke-width: 1.0;"/><line style="stroke: #A80036; stroke-width: 1.5;" x1="551.25" x2="551.25" y1="54.583" y2="74.583"/><polygon fill="#A80036" points="547.25,64.583,551.25,74.583,555.25,64.583,551.25,68.583" style="stroke: #A80036; stroke-width: 1.0;"/><line style="stroke: #A80036; stroke-width: 1.5;" x1="551.25" x2="551.25" y1="110.9717" y2="130.9717"/><polygon fill="#A80036" points="547.25,120.9717,551.25,130.9717,555.25,120.9717,551.25,124.9717" style="stroke: #A80036; stroke-width: 1.0;"/><line style="stroke: #A80036; stroke-width: 1.5;" x1="551.25" x2="551.25" y1="298.4697" y2="318.4697"/><polygon fill="#A80036" points="547.25,308.4697,551.25,318.4697,555.25,308.4697,551.25,312.4697" style="stroke: #A80036; stroke-width: 1.0;"/><line style="stroke: #A80036; stroke-width: 1.5;" x1="319.5" x2="319.5" y1="478.0244" y2="498.0244"/><polygon fill="#A80036" points="315.5,488.0244,319.5,498.0244,323.5,488.0244,319.5,492.0244" style="stroke: #A80036; stroke-width: 1.0;"/><line style="stroke: #A80036; stroke-width: 1.5;" x1="319.5" x2="319.5" y1="567.1904" y2="587.1904"/><polygon fill="#A80036" points="315.5,577.1904,319.5,587.1904,323.5,577.1904,319.5,581.1904" style="stroke: #A80036; stroke-width: 1.0;"/><line style="stroke: #A80036; stroke-width: 1.5;" x1="319.5" x2="319.5" y1="689.1338" y2="709.1338"/><polygon fill="#A80036" points="315.5,699.1338,319.5,709.1338,323.5,699.1338,319.5,703.1338" style="stroke: #A80036; stroke-width: 1.0;"/><line style="stroke: #A80036; stroke-width: 1.5;" x1="390.75" x2="319.5" y1="386.8584" y2="386.8584"/><line style="stroke: #A80036; stroke-width: 1.5;" x1="319.5" x2="319.5" y1="386.8584" y2="408.8584"/><polygon fill="#A80036" points="315.5,398.8584,319.5,408.8584,323.5,398.8584,319.5,402.8584" style="stroke: #A80036; stroke-width: 1.0;"/><line style="stroke: #A80036; stroke-width: 1.5;" x1="711.75" x2="783" y1="386.8584" y2="386.8584"/><line style="stroke: #A80036; stroke-width: 1.5;" x1="783" x2="783" y1="386.8584" y2="408.8584"/><polygon fill="#A80036" points="779,398.8584,783,408.8584,787,398.8584,783,402.8584" style="stroke: #A80036; stroke-width: 1.0;"/><line style="stroke: #A80036; stroke-width: 1.5;" x1="319.5" x2="319.5" y1="745.5225" y2="763.5225"/><line style="stroke: #A80036; stroke-width: 1.5;" x1="319.5" x2="539.25" y1="763.5225" y2="763.5225"/><polygon fill="#A80036" points="529.25,759.5225,539.25,763.5225,529.25,767.5225,533.25,763.5225" style="stroke: #A80036; stroke-width: 1.0;"/><line style="stroke: #A80036; stroke-width: 1.5;" x1="783" x2="783" y1="461.6357" y2="763.5225"/><line style="stroke: #A80036; stroke-width: 1.5;" x1="783" x2="563.25" y1="763.5225" y2="763.5225"/><polygon fill="#A80036" points="573.25,759.5225,563.25,763.5225,573.25,767.5225,569.25,763.5225" style="stroke: #A80036; stroke-width: 1.0;"/><line style="stroke: #A80036; stroke-width: 1.5;" x1="551.25" x2="551.25" y1="354.8584" y2="374.8584"/><polygon fill="#A80036" points="547.25,364.8584,551.25,374.8584,555.25,364.8584,551.25,368.8584" style="stroke: #A80036; stroke-width: 1.0;"/><line style="stroke: #A80036; stroke-width: 1.5;" x1="551.25" x2="551.25" y1="775.5225" y2="795.5225"/><polygon fill="#A80036" points="547.25,785.5225,551.25,795.5225,555.25,785.5225,551.25,789.5225" style="stroke: #A80036; stroke-width: 1.0;"/><!--MD5=[bd41ffb750c9fdf3004dbf3d026a311f]
@startuml
title 新建检验报告工作流程
start
:<b>企业用户登录平台;
:<b>输入或者选择:
报告编号
产品类型编号（选择）
生产日期
批号
商标
送样人
样品数量
检验依据;
:<b>点击“创建新检验报告”;
if (选择的“产品类型编号”是否存在于“产品类型_检验项目表”中？)then(存在)
:<b>新建一行检验报告表记录（父表）:
系统自动生成一条用户记录,
申请日期=当天日期,但是审批日期为空，不能登录;

:系统创建一份新的检验报告，系统自动设置该检验报告的：
企业检验日期=空, 检测机构检验日期=空，进度=空
企业ID=该用户的企业ID;
:<b>新建多行检验报告单项表记录（子表）:
系统自动根据“产品类型_检验项目表”中的产品类型编号的所有检验项目，
新增相同数目的“检验报告单项表”记录。把基础表“产品类型_检验项目表”中的检验项目ID按序复制到新增记录中。
这样，新增的“检验报告单项表”记录只有“报告编号”和“检验项目ID”两个字段有值。
其余字段如“企业检验录入,企业单项评定,检测机构检验录入,检测机构单项评定”就等待企业或者检测机构录入。;
:提示创建成功;
else(不存在)
:<b>终止新建检验报告:
提示必须预先配置该“产品类型编号”的检验项目;
endif
stop
@enduml

PlantUML version 1.2019.11(Sun Sep 22 18:02:15 CST 2019)
(GPL source distribution)
Java Runtime: OpenJDK Runtime Environment
JVM: OpenJDK 64-Bit Server VM
Java Version: 11.0.5+10-b520.38
Operating System: Windows 10
Default Encoding: GBK
Language: zh
Country: CN
--></g></svg>